<svg width="81" height="42" viewBox="0 0 81 42" fill="none" xmlns="http://www.w3.org/2000/svg">
<path opacity="0.3" d="M1.24074 24.3602L0.5 24.8452V40.8726H80.5V0.87262L79.7593 2.34261C79.0185 3.81261 77.537 6.7526 76.0556 7.75156C74.5741 8.75053 73.0926 7.80847 71.6111 7.56842C70.1296 7.32837 68.6481 7.79033 67.1667 8.19028C65.6852 8.59022 64.2037 8.92814 62.7222 9.02571C61.2407 9.12328 59.7593 8.9805 58.2778 10.0093C56.7963 11.0381 55.3148 13.2385 53.8333 14.7389C52.3519 16.2394 50.8704 17.04 49.3889 17.2721C47.9074 17.5041 46.4259 17.1677 44.9444 15.9823C43.463 14.7969 41.9815 12.7626 40.5 13.6981C39.0185 14.6336 37.537 18.5389 36.0556 18.4031C34.5741 18.2672 33.0926 14.0901 31.6111 11.9514C30.1296 9.81266 28.6481 9.7123 27.1667 10.1199C25.6852 10.5274 24.2037 11.4429 22.7222 11.5424C21.2407 11.6419 19.7593 10.9254 18.2778 11.9181C16.7963 12.9108 15.3148 15.6126 13.8333 18.2687C12.3519 20.9248 10.8704 23.5352 9.38889 24.1387C7.90741 24.7422 6.42593 23.3387 4.94444 23.122C3.46296 22.9053 1.98148 23.8753 1.24074 24.3602Z" fill="url(#paint0_linear_8_1252)"/>
<path d="M0.5 24.7431L1.24074 24.2602C1.98148 23.7773 3.46296 22.8115 4.94444 23.0273C6.42593 23.2431 7.90741 24.6405 9.38889 24.0396C10.8704 23.4387 12.3519 20.8394 13.8333 18.1946C15.3148 15.5498 16.7963 12.8595 18.2778 11.8711C19.7593 10.8826 21.2407 11.5961 22.7222 11.497C24.2037 11.3979 25.6852 10.4863 27.1667 10.0805C28.6481 9.67466 30.1296 9.7746 31.6111 11.9042C33.0926 14.0338 34.5741 18.1932 36.0556 18.3284C37.537 18.4637 39.0185 14.575 40.5 13.6434C41.9815 12.7119 43.463 14.7376 44.9444 15.918C46.4259 17.0983 47.9074 17.4333 49.3889 17.2022C50.8704 16.9711 52.3519 16.174 53.8333 14.6799C55.3148 13.1858 56.7963 10.9948 58.2778 9.97038C59.7593 8.94597 61.2407 9.08815 62.7222 8.99099C64.2037 8.89384 65.6852 8.55735 67.1667 8.15911C68.6481 7.76088 70.1296 7.30088 71.6111 7.53991C73.0926 7.77894 74.5741 8.71698 76.0556 7.72227C77.537 6.72756 79.0185 3.80009 79.7593 2.33635L80.5 0.87262" stroke="#37CBB0" stroke-width="0.509554"/>
<defs>
<linearGradient id="paint0_linear_8_1252" x1="40.5" y1="0.87262" x2="40.5" y2="40.8726" gradientUnits="userSpaceOnUse">
<stop stop-color="#37CBB0"/>
<stop offset="1" stop-color="#37CBB0" stop-opacity="0"/>
</linearGradient>
</defs>
</svg>
