<svg width="33" height="32" viewBox="0 0 33 32" fill="none" xmlns="http://www.w3.org/2000/svg">
<path fill-rule="evenodd" clip-rule="evenodd" d="M17 11.5C17 10.9477 16.5523 10.5 16 10.5C15.4477 10.5 15 10.9477 15 11.5V15H12C11.4477 15 11 15.4477 11 16C11 16.5523 11.4477 17 12 17H15V20.5C15 21.0523 15.4477 21.5 16 21.5C16.5523 21.5 17 21.0523 17 20.5V17H21C21.5523 17 22 16.5523 22 16C22 15.4477 21.5523 15 21 15H17V11.5Z" fill="black"/>
<rect x="1.5" y="1" width="30" height="30" rx="15" stroke="url(#paint0_linear_201_6998)" stroke-opacity="0.6" stroke-width="1.5"/>
<defs>
<linearGradient id="paint0_linear_201_6998" x1="16.5" y1="1" x2="16.5" y2="31" gradientUnits="userSpaceOnUse">
<stop stop-color="white"/>
<stop offset="1" stop-color="white" stop-opacity="0.35"/>
</linearGradient>
</defs>
</svg>
