<svg width="20" height="20" viewBox="0 0 20 20" fill="none" xmlns="http://www.w3.org/2000/svg">
<g clip-path="url(#clip0_8_1306)">
<path d="M12.2515 8.7967C12.3657 8.14707 11.8409 7.70501 10.6105 7.41453C10.4442 7.37524 10.297 7.34313 10.2833 7.34313C10.2696 7.34313 10.1573 7.76689 10.0338 8.28479C9.91035 8.80272 9.80456 9.23994 9.79874 9.2564C9.79247 9.2742 9.93264 9.32283 10.1438 9.37618C11.1211 9.623 11.6762 9.59626 12.0018 9.28673C12.149 9.14677 12.2115 9.02415 12.2515 8.7967Z" fill="black"/>
<path d="M11.9092 11.4397C11.6979 10.9662 11.0885 10.6336 9.9212 10.3546C9.73284 10.3096 9.57308 10.2728 9.56615 10.2728C9.55214 10.2728 9.03225 12.4019 9.04345 12.4135C9.05886 12.4294 9.68504 12.5893 9.95261 12.6457C10.2956 12.718 10.9472 12.7487 11.1806 12.7035C11.5286 12.6362 11.7677 12.4588 11.8961 12.1724C11.9902 11.9627 11.9961 11.6343 11.9092 11.4397Z" fill="black"/>
<path fill-rule="evenodd" clip-rule="evenodd" d="M20 0H0V20H20V0ZM9.73411 5.2575C9.82595 4.87768 9.91279 4.52122 9.9271 4.4653C9.95201 4.36804 9.95688 4.36461 10.0408 4.38509C10.4329 4.48079 10.8432 4.59022 10.8671 4.60548C10.8865 4.61781 10.8343 4.87852 10.71 5.39001C10.6077 5.81135 10.5302 6.16262 10.5378 6.17066C10.5555 6.18927 11.2614 6.36184 11.2741 6.35068C11.2793 6.34607 11.3664 6.00166 11.4675 5.58535C11.5686 5.16903 11.6563 4.82319 11.6625 4.81689C11.6686 4.81055 11.8798 4.85868 12.1319 4.92386C12.5431 5.03022 12.5892 5.04802 12.5812 5.09763C12.5764 5.12802 12.4932 5.48392 12.3964 5.88855C12.2996 6.29317 12.2306 6.6334 12.2429 6.64459C12.2553 6.65578 12.3689 6.70642 12.4954 6.75712C13.1968 7.0383 13.6966 7.41193 13.9324 7.8314C14.1854 8.28139 14.1894 8.9294 13.9428 9.48505C13.7629 9.89048 13.4519 10.1559 12.9737 10.3122C12.9359 10.3245 12.9817 10.3679 13.1682 10.4966C13.7219 10.8786 13.9539 11.3303 13.9201 11.9608C13.9011 12.3143 13.8093 12.6513 13.6273 13.035C13.5079 13.2868 13.4558 13.3616 13.2557 13.5678C12.9939 13.8376 12.7747 13.967 12.4007 14.0728C12.2096 14.1268 12.1195 14.1338 11.6298 14.1325C11.2053 14.1314 11.0005 14.118 10.7565 14.0754C10.5812 14.0448 10.4338 14.0273 10.429 14.0366C10.4241 14.0458 10.3366 14.4049 10.2345 14.8346C10.1324 15.2643 10.0467 15.6198 10.044 15.6247C10.0389 15.6339 9.13956 15.4085 9.1118 15.3911C9.10312 15.3856 9.18149 15.0293 9.2859 14.5992C9.39032 14.1692 9.46872 13.8101 9.46011 13.8012C9.43095 13.7711 8.74894 13.5981 8.73225 13.6166C8.72313 13.6266 8.63308 13.9801 8.5321 14.4021C8.43114 14.8242 8.34374 15.1752 8.33787 15.1823C8.332 15.1893 8.11635 15.1413 7.85866 15.0756L7.39016 14.956L7.58623 14.1486C7.69405 13.7046 7.77445 13.3362 7.76485 13.3301C7.75527 13.324 7.32613 13.2098 6.81121 13.0764L5.875 12.8339L6.09076 12.3276C6.20943 12.0491 6.31298 11.7983 6.32086 11.7702C6.33097 11.7341 6.35202 11.7237 6.39235 11.7346C6.42376 11.7432 6.60957 11.7898 6.80521 11.8382L7.16093 11.9262L7.26335 11.8737C7.31967 11.8449 7.38775 11.7899 7.41467 11.7515C7.44407 11.7096 7.67882 10.7905 8.00309 9.44794C8.50898 7.35316 8.55667 7.15883 8.49398 7.01144C8.48706 6.99516 8.47879 6.97946 8.46964 6.96183C8.38683 6.80226 8.17659 6.70572 7.62621 6.57456C7.51462 6.54797 7.42 6.5235 7.41594 6.52015C7.4082 6.51382 7.64842 5.49665 7.6601 5.48621C7.66378 5.48295 8.07458 5.58551 8.573 5.71414C9.07142 5.84279 9.49899 5.94806 9.52317 5.94806C9.55809 5.94806 9.60154 5.80579 9.73411 5.2575Z" fill="black"/>
</g>
<defs>
<clipPath id="clip0_8_1306">
<rect width="20" height="20" rx="10" fill="white"/>
</clipPath>
</defs>
</svg>
