<svg width="43" height="43" viewBox="0 0 43 43" fill="none" xmlns="http://www.w3.org/2000/svg">
<path d="M21.8599 0.219238L40.3843 10.9143V32.3045L21.8599 42.9995L3.33546 32.3045V10.9143L21.8599 0.219238Z" fill="#6E4AFC"/>
<path d="M12.6099 29.8598C12.1265 29.8598 11.714 29.689 11.3724 29.3473C11.0307 29.0056 10.8599 28.5931 10.8599 28.1098C10.8599 27.6265 11.0307 27.214 11.3724 26.8723C11.714 26.5306 12.1265 26.3598 12.6099 26.3598C12.6932 26.3598 12.7765 26.364 12.8599 26.3723C12.9432 26.3806 13.0515 26.4015 13.1849 26.4348L18.1849 21.4348C18.1515 21.3015 18.1307 21.1931 18.1224 21.1098C18.114 21.0265 18.1099 20.9431 18.1099 20.8598C18.1099 20.3765 18.2807 19.964 18.6224 19.6223C18.964 19.2806 19.3765 19.1098 19.8599 19.1098C20.3432 19.1098 20.7557 19.2806 21.0974 19.6223C21.439 19.964 21.6099 20.3765 21.6099 20.8598C21.6099 20.8931 21.5849 21.0848 21.5349 21.4348L24.2849 24.1848C24.4182 24.1515 24.5265 24.1306 24.6099 24.1223C24.6932 24.114 24.7765 24.1098 24.8599 24.1098C24.9432 24.1098 25.0265 24.114 25.1099 24.1223C25.1932 24.1306 25.3015 24.1515 25.4349 24.1848L29.4349 20.1848C29.4015 20.0515 29.3807 19.9431 29.3724 19.8598C29.364 19.7765 29.3599 19.6931 29.3599 19.6098C29.3599 19.1265 29.5307 18.714 29.8724 18.3723C30.214 18.0306 30.6265 17.8598 31.1099 17.8598C31.5932 17.8598 32.0057 18.0306 32.3474 18.3723C32.689 18.714 32.8599 19.1265 32.8599 19.6098C32.8599 20.0931 32.689 20.5056 32.3474 20.8473C32.0057 21.189 31.5932 21.3598 31.1099 21.3598C31.0265 21.3598 30.9432 21.3556 30.8599 21.3473C30.7765 21.339 30.6682 21.3181 30.5349 21.2848L26.5349 25.2848C26.5682 25.4181 26.589 25.5265 26.5974 25.6098C26.6057 25.6931 26.6099 25.7765 26.6099 25.8598C26.6099 26.3431 26.439 26.7556 26.0974 27.0973C25.7557 27.439 25.3432 27.6098 24.8599 27.6098C24.3765 27.6098 23.964 27.439 23.6224 27.0973C23.2807 26.7556 23.1099 26.3431 23.1099 25.8598C23.1099 25.7765 23.114 25.6931 23.1224 25.6098C23.1307 25.5265 23.1515 25.4181 23.1849 25.2848L20.4349 22.5348C20.3015 22.5681 20.1932 22.589 20.1099 22.5973C20.0265 22.6056 19.9432 22.6098 19.8599 22.6098C19.8265 22.6098 19.6349 22.5848 19.2849 22.5348L14.2849 27.5348C14.3182 27.6681 14.339 27.7765 14.3474 27.8598C14.3557 27.9431 14.3599 28.0265 14.3599 28.1098C14.3599 28.5931 14.189 29.0056 13.8474 29.3473C13.5057 29.689 13.0932 29.8598 12.6099 29.8598ZM13.8599 18.8098L13.3599 17.7098L12.2599 17.2098L13.3599 16.7098L13.8599 15.6098L14.3599 16.7098L15.4599 17.2098L14.3599 17.7098L13.8599 18.8098ZM24.8599 17.5348L24.0849 15.8848L22.4349 15.1098L24.0849 14.3348L24.8599 12.6848L25.6349 14.3348L27.2849 15.1098L25.6349 15.8848L24.8599 17.5348Z" fill="white"/>
</svg>
