<svg width="375" height="294" viewBox="0 0 375 294" fill="none" xmlns="http://www.w3.org/2000/svg">
<path d="M316 11L-5.37305 11" stroke="#393547" stroke-dasharray="7 7"/>
<path opacity="0.4" d="M333.482 16.984V16C332.874 15.96 332.358 15.812 331.934 15.556C331.518 15.292 331.162 14.964 330.866 14.572L331.574 13.936C331.83 14.28 332.11 14.556 332.414 14.764C332.726 14.964 333.086 15.092 333.494 15.148V12.064C332.67 11.88 332.066 11.612 331.682 11.26C331.306 10.9 331.118 10.408 331.118 9.784C331.118 9.464 331.174 9.18 331.286 8.932C331.406 8.676 331.57 8.456 331.778 8.272C331.986 8.088 332.234 7.944 332.522 7.84C332.81 7.728 333.13 7.656 333.482 7.624V6.64H334.226V7.612C334.77 7.66 335.238 7.8 335.63 8.032C336.03 8.256 336.374 8.568 336.662 8.968L335.93 9.52C335.73 9.24 335.49 9.012 335.21 8.836C334.93 8.652 334.598 8.532 334.214 8.476V11.284L334.322 11.308C335.154 11.492 335.758 11.764 336.134 12.124C336.518 12.476 336.71 12.968 336.71 13.6C336.71 14.288 336.486 14.844 336.038 15.268C335.598 15.684 334.994 15.928 334.226 16V16.984H333.482ZM335.762 13.66C335.762 13.252 335.642 12.94 335.402 12.724C335.17 12.508 334.774 12.332 334.214 12.196V15.148C334.694 15.084 335.07 14.924 335.342 14.668C335.622 14.404 335.762 14.068 335.762 13.66ZM332.066 9.712C332.066 10.12 332.182 10.428 332.414 10.636C332.654 10.836 333.014 11 333.494 11.128V8.476C333.062 8.532 332.714 8.664 332.45 8.872C332.194 9.08 332.066 9.36 332.066 9.712ZM339.514 16L342.718 8.488H339.142V10.048H338.242V7.624H343.738V8.512L340.594 16H339.514ZM348.209 16.144C347.209 16.144 346.477 15.764 346.013 15.004C345.557 14.244 345.329 13.18 345.329 11.812C345.329 10.444 345.557 9.38 346.013 8.62C346.477 7.86 347.209 7.48 348.209 7.48C349.209 7.48 349.937 7.86 350.393 8.62C350.857 9.38 351.089 10.444 351.089 11.812C351.089 13.18 350.857 14.244 350.393 15.004C349.937 15.764 349.209 16.144 348.209 16.144ZM348.209 15.268C348.537 15.268 348.817 15.2 349.049 15.064C349.281 14.928 349.469 14.736 349.613 14.488C349.757 14.24 349.861 13.948 349.925 13.612C349.997 13.276 350.033 12.904 350.033 12.496V11.128C350.033 10.72 349.997 10.348 349.925 10.012C349.861 9.676 349.757 9.384 349.613 9.136C349.469 8.888 349.281 8.696 349.049 8.56C348.817 8.424 348.537 8.356 348.209 8.356C347.881 8.356 347.601 8.424 347.369 8.56C347.137 8.696 346.949 8.888 346.805 9.136C346.661 9.384 346.553 9.676 346.481 10.012C346.417 10.348 346.385 10.72 346.385 11.128V12.496C346.385 12.904 346.417 13.276 346.481 13.612C346.553 13.948 346.661 14.24 346.805 14.488C346.949 14.736 347.137 14.928 347.369 15.064C347.601 15.2 347.881 15.268 348.209 15.268ZM355.405 16.144C354.405 16.144 353.673 15.764 353.209 15.004C352.753 14.244 352.525 13.18 352.525 11.812C352.525 10.444 352.753 9.38 353.209 8.62C353.673 7.86 354.405 7.48 355.405 7.48C356.405 7.48 357.133 7.86 357.589 8.62C358.053 9.38 358.285 10.444 358.285 11.812C358.285 13.18 358.053 14.244 357.589 15.004C357.133 15.764 356.405 16.144 355.405 16.144ZM355.405 15.268C355.733 15.268 356.013 15.2 356.245 15.064C356.477 14.928 356.665 14.736 356.809 14.488C356.953 14.24 357.057 13.948 357.121 13.612C357.193 13.276 357.229 12.904 357.229 12.496V11.128C357.229 10.72 357.193 10.348 357.121 10.012C357.057 9.676 356.953 9.384 356.809 9.136C356.665 8.888 356.477 8.696 356.245 8.56C356.013 8.424 355.733 8.356 355.405 8.356C355.077 8.356 354.797 8.424 354.565 8.56C354.333 8.696 354.145 8.888 354.001 9.136C353.857 9.384 353.749 9.676 353.677 10.012C353.613 10.348 353.581 10.72 353.581 11.128V12.496C353.581 12.904 353.613 13.276 353.677 13.612C353.749 13.948 353.857 14.24 354.001 14.488C354.145 14.736 354.333 14.928 354.565 15.064C354.797 15.2 355.077 15.268 355.405 15.268Z" fill="white"/>
<path d="M316 51L-5.37305 51" stroke="#393547" stroke-dasharray="7 7"/>
<path opacity="0.4" d="M333.482 56.984V56C332.874 55.96 332.358 55.812 331.934 55.556C331.518 55.292 331.162 54.964 330.866 54.572L331.574 53.936C331.83 54.28 332.11 54.556 332.414 54.764C332.726 54.964 333.086 55.092 333.494 55.148V52.064C332.67 51.88 332.066 51.612 331.682 51.26C331.306 50.9 331.118 50.408 331.118 49.784C331.118 49.464 331.174 49.18 331.286 48.932C331.406 48.676 331.57 48.456 331.778 48.272C331.986 48.088 332.234 47.944 332.522 47.84C332.81 47.728 333.13 47.656 333.482 47.624V46.64H334.226V47.612C334.77 47.66 335.238 47.8 335.63 48.032C336.03 48.256 336.374 48.568 336.662 48.968L335.93 49.52C335.73 49.24 335.49 49.012 335.21 48.836C334.93 48.652 334.598 48.532 334.214 48.476V51.284L334.322 51.308C335.154 51.492 335.758 51.764 336.134 52.124C336.518 52.476 336.71 52.968 336.71 53.6C336.71 54.288 336.486 54.844 336.038 55.268C335.598 55.684 334.994 55.928 334.226 56V56.984H333.482ZM335.762 53.66C335.762 53.252 335.642 52.94 335.402 52.724C335.17 52.508 334.774 52.332 334.214 52.196V55.148C334.694 55.084 335.07 54.924 335.342 54.668C335.622 54.404 335.762 54.068 335.762 53.66ZM332.066 49.712C332.066 50.12 332.182 50.428 332.414 50.636C332.654 50.836 333.014 51 333.494 51.128V48.476C333.062 48.532 332.714 48.664 332.45 48.872C332.194 49.08 332.066 49.36 332.066 49.712ZM341.026 56.144C340.594 56.144 340.202 56.072 339.85 55.928C339.506 55.776 339.21 55.564 338.962 55.292C338.722 55.012 338.538 54.672 338.41 54.272C338.282 53.872 338.218 53.424 338.218 52.928C338.218 52.304 338.31 51.72 338.494 51.176C338.678 50.624 338.914 50.124 339.202 49.676C339.498 49.22 339.822 48.82 340.174 48.476C340.526 48.124 340.87 47.84 341.206 47.624H342.502C342.054 47.952 341.654 48.272 341.302 48.584C340.95 48.896 340.642 49.224 340.378 49.568C340.114 49.904 339.89 50.268 339.706 50.66C339.522 51.044 339.374 51.48 339.262 51.968L339.322 51.992C339.522 51.648 339.778 51.364 340.09 51.14C340.41 50.908 340.826 50.792 341.338 50.792C341.698 50.792 342.03 50.852 342.334 50.972C342.638 51.092 342.898 51.264 343.114 51.488C343.33 51.712 343.498 51.984 343.618 52.304C343.746 52.624 343.81 52.98 343.81 53.372C343.81 53.78 343.742 54.156 343.606 54.5C343.478 54.836 343.29 55.128 343.042 55.376C342.802 55.616 342.51 55.804 342.166 55.94C341.822 56.076 341.442 56.144 341.026 56.144ZM341.014 55.268C341.566 55.268 341.994 55.116 342.298 54.812C342.61 54.508 342.766 54.072 342.766 53.504V53.408C342.766 52.84 342.61 52.404 342.298 52.1C341.994 51.796 341.566 51.644 341.014 51.644C340.462 51.644 340.03 51.796 339.718 52.1C339.414 52.404 339.262 52.84 339.262 53.408V53.504C339.262 54.072 339.414 54.508 339.718 54.812C340.03 55.116 340.462 55.268 341.014 55.268ZM348.209 56.144C347.209 56.144 346.477 55.764 346.013 55.004C345.557 54.244 345.329 53.18 345.329 51.812C345.329 50.444 345.557 49.38 346.013 48.62C346.477 47.86 347.209 47.48 348.209 47.48C349.209 47.48 349.937 47.86 350.393 48.62C350.857 49.38 351.089 50.444 351.089 51.812C351.089 53.18 350.857 54.244 350.393 55.004C349.937 55.764 349.209 56.144 348.209 56.144ZM348.209 55.268C348.537 55.268 348.817 55.2 349.049 55.064C349.281 54.928 349.469 54.736 349.613 54.488C349.757 54.24 349.861 53.948 349.925 53.612C349.997 53.276 350.033 52.904 350.033 52.496V51.128C350.033 50.72 349.997 50.348 349.925 50.012C349.861 49.676 349.757 49.384 349.613 49.136C349.469 48.888 349.281 48.696 349.049 48.56C348.817 48.424 348.537 48.356 348.209 48.356C347.881 48.356 347.601 48.424 347.369 48.56C347.137 48.696 346.949 48.888 346.805 49.136C346.661 49.384 346.553 49.676 346.481 50.012C346.417 50.348 346.385 50.72 346.385 51.128V52.496C346.385 52.904 346.417 53.276 346.481 53.612C346.553 53.948 346.661 54.24 346.805 54.488C346.949 54.736 347.137 54.928 347.369 55.064C347.601 55.2 347.881 55.268 348.209 55.268ZM355.405 56.144C354.405 56.144 353.673 55.764 353.209 55.004C352.753 54.244 352.525 53.18 352.525 51.812C352.525 50.444 352.753 49.38 353.209 48.62C353.673 47.86 354.405 47.48 355.405 47.48C356.405 47.48 357.133 47.86 357.589 48.62C358.053 49.38 358.285 50.444 358.285 51.812C358.285 53.18 358.053 54.244 357.589 55.004C357.133 55.764 356.405 56.144 355.405 56.144ZM355.405 55.268C355.733 55.268 356.013 55.2 356.245 55.064C356.477 54.928 356.665 54.736 356.809 54.488C356.953 54.24 357.057 53.948 357.121 53.612C357.193 53.276 357.229 52.904 357.229 52.496V51.128C357.229 50.72 357.193 50.348 357.121 50.012C357.057 49.676 356.953 49.384 356.809 49.136C356.665 48.888 356.477 48.696 356.245 48.56C356.013 48.424 355.733 48.356 355.405 48.356C355.077 48.356 354.797 48.424 354.565 48.56C354.333 48.696 354.145 48.888 354.001 49.136C353.857 49.384 353.749 49.676 353.677 50.012C353.613 50.348 353.581 50.72 353.581 51.128V52.496C353.581 52.904 353.613 53.276 353.677 53.612C353.749 53.948 353.857 54.24 354.001 54.488C354.145 54.736 354.333 54.928 354.565 55.064C354.797 55.2 355.077 55.268 355.405 55.268Z" fill="white"/>
<path d="M316 91L-5.37305 91" stroke="#393547" stroke-dasharray="7 7"/>
<path opacity="0.4" d="M333.482 96.984V96C332.874 95.96 332.358 95.812 331.934 95.556C331.518 95.292 331.162 94.964 330.866 94.572L331.574 93.936C331.83 94.28 332.11 94.556 332.414 94.764C332.726 94.964 333.086 95.092 333.494 95.148V92.064C332.67 91.88 332.066 91.612 331.682 91.26C331.306 90.9 331.118 90.408 331.118 89.784C331.118 89.464 331.174 89.18 331.286 88.932C331.406 88.676 331.57 88.456 331.778 88.272C331.986 88.088 332.234 87.944 332.522 87.84C332.81 87.728 333.13 87.656 333.482 87.624V86.64H334.226V87.612C334.77 87.66 335.238 87.8 335.63 88.032C336.03 88.256 336.374 88.568 336.662 88.968L335.93 89.52C335.73 89.24 335.49 89.012 335.21 88.836C334.93 88.652 334.598 88.532 334.214 88.476V91.284L334.322 91.308C335.154 91.492 335.758 91.764 336.134 92.124C336.518 92.476 336.71 92.968 336.71 93.6C336.71 94.288 336.486 94.844 336.038 95.268C335.598 95.684 334.994 95.928 334.226 96V96.984H333.482ZM335.762 93.66C335.762 93.252 335.642 92.94 335.402 92.724C335.17 92.508 334.774 92.332 334.214 92.196V95.148C334.694 95.084 335.07 94.924 335.342 94.668C335.622 94.404 335.762 94.068 335.762 93.66ZM332.066 89.712C332.066 90.12 332.182 90.428 332.414 90.636C332.654 90.836 333.014 91 333.494 91.128V88.476C333.062 88.532 332.714 88.664 332.45 88.872C332.194 89.08 332.066 89.36 332.066 89.712ZM343.39 88.512H339.718L339.478 91.704H339.562C339.762 91.424 339.986 91.2 340.234 91.032C340.49 90.864 340.838 90.78 341.278 90.78C341.638 90.78 341.97 90.84 342.274 90.96C342.578 91.08 342.842 91.252 343.066 91.476C343.29 91.692 343.462 91.96 343.582 92.28C343.71 92.6 343.774 92.964 343.774 93.372C343.774 93.78 343.71 94.156 343.582 94.5C343.454 94.836 343.266 95.128 343.018 95.376C342.778 95.616 342.482 95.804 342.13 95.94C341.786 96.076 341.394 96.144 340.954 96.144C340.602 96.144 340.29 96.104 340.018 96.024C339.754 95.944 339.518 95.836 339.31 95.7C339.102 95.564 338.918 95.412 338.758 95.244C338.606 95.076 338.466 94.9 338.338 94.716L339.094 94.14C339.198 94.308 339.306 94.46 339.418 94.596C339.538 94.732 339.666 94.848 339.802 94.944C339.946 95.04 340.11 95.116 340.294 95.172C340.478 95.22 340.698 95.244 340.954 95.244C341.53 95.244 341.966 95.092 342.262 94.788C342.558 94.484 342.706 94.056 342.706 93.504V93.384C342.706 92.832 342.558 92.404 342.262 92.1C341.966 91.796 341.53 91.644 340.954 91.644C340.57 91.644 340.266 91.716 340.042 91.86C339.826 91.996 339.63 92.16 339.454 92.352L338.602 92.232L338.902 87.624H343.39V88.512ZM348.209 96.144C347.209 96.144 346.477 95.764 346.013 95.004C345.557 94.244 345.329 93.18 345.329 91.812C345.329 90.444 345.557 89.38 346.013 88.62C346.477 87.86 347.209 87.48 348.209 87.48C349.209 87.48 349.937 87.86 350.393 88.62C350.857 89.38 351.089 90.444 351.089 91.812C351.089 93.18 350.857 94.244 350.393 95.004C349.937 95.764 349.209 96.144 348.209 96.144ZM348.209 95.268C348.537 95.268 348.817 95.2 349.049 95.064C349.281 94.928 349.469 94.736 349.613 94.488C349.757 94.24 349.861 93.948 349.925 93.612C349.997 93.276 350.033 92.904 350.033 92.496V91.128C350.033 90.72 349.997 90.348 349.925 90.012C349.861 89.676 349.757 89.384 349.613 89.136C349.469 88.888 349.281 88.696 349.049 88.56C348.817 88.424 348.537 88.356 348.209 88.356C347.881 88.356 347.601 88.424 347.369 88.56C347.137 88.696 346.949 88.888 346.805 89.136C346.661 89.384 346.553 89.676 346.481 90.012C346.417 90.348 346.385 90.72 346.385 91.128V92.496C346.385 92.904 346.417 93.276 346.481 93.612C346.553 93.948 346.661 94.24 346.805 94.488C346.949 94.736 347.137 94.928 347.369 95.064C347.601 95.2 347.881 95.268 348.209 95.268ZM355.405 96.144C354.405 96.144 353.673 95.764 353.209 95.004C352.753 94.244 352.525 93.18 352.525 91.812C352.525 90.444 352.753 89.38 353.209 88.62C353.673 87.86 354.405 87.48 355.405 87.48C356.405 87.48 357.133 87.86 357.589 88.62C358.053 89.38 358.285 90.444 358.285 91.812C358.285 93.18 358.053 94.244 357.589 95.004C357.133 95.764 356.405 96.144 355.405 96.144ZM355.405 95.268C355.733 95.268 356.013 95.2 356.245 95.064C356.477 94.928 356.665 94.736 356.809 94.488C356.953 94.24 357.057 93.948 357.121 93.612C357.193 93.276 357.229 92.904 357.229 92.496V91.128C357.229 90.72 357.193 90.348 357.121 90.012C357.057 89.676 356.953 89.384 356.809 89.136C356.665 88.888 356.477 88.696 356.245 88.56C356.013 88.424 355.733 88.356 355.405 88.356C355.077 88.356 354.797 88.424 354.565 88.56C354.333 88.696 354.145 88.888 354.001 89.136C353.857 89.384 353.749 89.676 353.677 90.012C353.613 90.348 353.581 90.72 353.581 91.128V92.496C353.581 92.904 353.613 93.276 353.677 93.612C353.749 93.948 353.857 94.24 354.001 94.488C354.145 94.736 354.333 94.928 354.565 95.064C354.797 95.2 355.077 95.268 355.405 95.268Z" fill="white"/>
<path d="M316 131L-5.37305 131" stroke="#393547" stroke-dasharray="7 7"/>
<path opacity="0.4" d="M333.482 136.984V136C332.874 135.96 332.358 135.812 331.934 135.556C331.518 135.292 331.162 134.964 330.866 134.572L331.574 133.936C331.83 134.28 332.11 134.556 332.414 134.764C332.726 134.964 333.086 135.092 333.494 135.148V132.064C332.67 131.88 332.066 131.612 331.682 131.26C331.306 130.9 331.118 130.408 331.118 129.784C331.118 129.464 331.174 129.18 331.286 128.932C331.406 128.676 331.57 128.456 331.778 128.272C331.986 128.088 332.234 127.944 332.522 127.84C332.81 127.728 333.13 127.656 333.482 127.624V126.64H334.226V127.612C334.77 127.66 335.238 127.8 335.63 128.032C336.03 128.256 336.374 128.568 336.662 128.968L335.93 129.52C335.73 129.24 335.49 129.012 335.21 128.836C334.93 128.652 334.598 128.532 334.214 128.476V131.284L334.322 131.308C335.154 131.492 335.758 131.764 336.134 132.124C336.518 132.476 336.71 132.968 336.71 133.6C336.71 134.288 336.486 134.844 336.038 135.268C335.598 135.684 334.994 135.928 334.226 136V136.984H333.482ZM335.762 133.66C335.762 133.252 335.642 132.94 335.402 132.724C335.17 132.508 334.774 132.332 334.214 132.196V135.148C334.694 135.084 335.07 134.924 335.342 134.668C335.622 134.404 335.762 134.068 335.762 133.66ZM332.066 129.712C332.066 130.12 332.182 130.428 332.414 130.636C332.654 130.836 333.014 131 333.494 131.128V128.476C333.062 128.532 332.714 128.664 332.45 128.872C332.194 129.08 332.066 129.36 332.066 129.712ZM341.914 136V134.356H337.87V133.468L341.374 127.624H342.874V133.516H344.086V134.356H342.874V136H341.914ZM338.818 133.516H341.914V128.404H341.854L338.818 133.516ZM348.209 136.144C347.209 136.144 346.477 135.764 346.013 135.004C345.557 134.244 345.329 133.18 345.329 131.812C345.329 130.444 345.557 129.38 346.013 128.62C346.477 127.86 347.209 127.48 348.209 127.48C349.209 127.48 349.937 127.86 350.393 128.62C350.857 129.38 351.089 130.444 351.089 131.812C351.089 133.18 350.857 134.244 350.393 135.004C349.937 135.764 349.209 136.144 348.209 136.144ZM348.209 135.268C348.537 135.268 348.817 135.2 349.049 135.064C349.281 134.928 349.469 134.736 349.613 134.488C349.757 134.24 349.861 133.948 349.925 133.612C349.997 133.276 350.033 132.904 350.033 132.496V131.128C350.033 130.72 349.997 130.348 349.925 130.012C349.861 129.676 349.757 129.384 349.613 129.136C349.469 128.888 349.281 128.696 349.049 128.56C348.817 128.424 348.537 128.356 348.209 128.356C347.881 128.356 347.601 128.424 347.369 128.56C347.137 128.696 346.949 128.888 346.805 129.136C346.661 129.384 346.553 129.676 346.481 130.012C346.417 130.348 346.385 130.72 346.385 131.128V132.496C346.385 132.904 346.417 133.276 346.481 133.612C346.553 133.948 346.661 134.24 346.805 134.488C346.949 134.736 347.137 134.928 347.369 135.064C347.601 135.2 347.881 135.268 348.209 135.268ZM355.405 136.144C354.405 136.144 353.673 135.764 353.209 135.004C352.753 134.244 352.525 133.18 352.525 131.812C352.525 130.444 352.753 129.38 353.209 128.62C353.673 127.86 354.405 127.48 355.405 127.48C356.405 127.48 357.133 127.86 357.589 128.62C358.053 129.38 358.285 130.444 358.285 131.812C358.285 133.18 358.053 134.244 357.589 135.004C357.133 135.764 356.405 136.144 355.405 136.144ZM355.405 135.268C355.733 135.268 356.013 135.2 356.245 135.064C356.477 134.928 356.665 134.736 356.809 134.488C356.953 134.24 357.057 133.948 357.121 133.612C357.193 133.276 357.229 132.904 357.229 132.496V131.128C357.229 130.72 357.193 130.348 357.121 130.012C357.057 129.676 356.953 129.384 356.809 129.136C356.665 128.888 356.477 128.696 356.245 128.56C356.013 128.424 355.733 128.356 355.405 128.356C355.077 128.356 354.797 128.424 354.565 128.56C354.333 128.696 354.145 128.888 354.001 129.136C353.857 129.384 353.749 129.676 353.677 130.012C353.613 130.348 353.581 130.72 353.581 131.128V132.496C353.581 132.904 353.613 133.276 353.677 133.612C353.749 133.948 353.857 134.24 354.001 134.488C354.145 134.736 354.333 134.928 354.565 135.064C354.797 135.2 355.077 135.268 355.405 135.268Z" fill="white"/>
<path d="M316 171L-5.37305 171" stroke="#393547" stroke-dasharray="7 7"/>
<path opacity="0.4" d="M333.482 176.984V176C332.874 175.96 332.358 175.812 331.934 175.556C331.518 175.292 331.162 174.964 330.866 174.572L331.574 173.936C331.83 174.28 332.11 174.556 332.414 174.764C332.726 174.964 333.086 175.092 333.494 175.148V172.064C332.67 171.88 332.066 171.612 331.682 171.26C331.306 170.9 331.118 170.408 331.118 169.784C331.118 169.464 331.174 169.18 331.286 168.932C331.406 168.676 331.57 168.456 331.778 168.272C331.986 168.088 332.234 167.944 332.522 167.84C332.81 167.728 333.13 167.656 333.482 167.624V166.64H334.226V167.612C334.77 167.66 335.238 167.8 335.63 168.032C336.03 168.256 336.374 168.568 336.662 168.968L335.93 169.52C335.73 169.24 335.49 169.012 335.21 168.836C334.93 168.652 334.598 168.532 334.214 168.476V171.284L334.322 171.308C335.154 171.492 335.758 171.764 336.134 172.124C336.518 172.476 336.71 172.968 336.71 173.6C336.71 174.288 336.486 174.844 336.038 175.268C335.598 175.684 334.994 175.928 334.226 176V176.984H333.482ZM335.762 173.66C335.762 173.252 335.642 172.94 335.402 172.724C335.17 172.508 334.774 172.332 334.214 172.196V175.148C334.694 175.084 335.07 174.924 335.342 174.668C335.622 174.404 335.762 174.068 335.762 173.66ZM332.066 169.712C332.066 170.12 332.182 170.428 332.414 170.636C332.654 170.836 333.014 171 333.494 171.128V168.476C333.062 168.532 332.714 168.664 332.45 168.872C332.194 169.08 332.066 169.36 332.066 169.712ZM340.546 171.176C341.114 171.176 341.538 171.048 341.818 170.792C342.106 170.528 342.25 170.192 342.25 169.784V169.7C342.25 169.26 342.11 168.932 341.83 168.716C341.558 168.492 341.198 168.38 340.75 168.38C340.318 168.38 339.966 168.476 339.694 168.668C339.422 168.852 339.198 169.104 339.022 169.424L338.278 168.848C338.382 168.68 338.506 168.516 338.65 168.356C338.802 168.188 338.978 168.04 339.178 167.912C339.378 167.784 339.61 167.68 339.874 167.6C340.138 167.52 340.438 167.48 340.774 167.48C341.126 167.48 341.458 167.528 341.77 167.624C342.082 167.712 342.35 167.848 342.574 168.032C342.806 168.208 342.986 168.428 343.114 168.692C343.25 168.956 343.318 169.256 343.318 169.592C343.318 169.864 343.274 170.108 343.186 170.324C343.106 170.54 342.994 170.728 342.85 170.888C342.706 171.048 342.534 171.184 342.334 171.296C342.142 171.408 341.934 171.492 341.71 171.548V171.596C341.934 171.644 342.15 171.724 342.358 171.836C342.574 171.94 342.762 172.08 342.922 172.256C343.09 172.424 343.222 172.632 343.318 172.88C343.422 173.12 343.474 173.396 343.474 173.708C343.474 174.068 343.406 174.4 343.27 174.704C343.134 175 342.942 175.256 342.694 175.472C342.446 175.68 342.146 175.844 341.794 175.964C341.442 176.084 341.054 176.144 340.63 176.144C340.27 176.144 339.95 176.104 339.67 176.024C339.39 175.944 339.142 175.836 338.926 175.7C338.71 175.564 338.518 175.412 338.35 175.244C338.19 175.076 338.046 174.9 337.918 174.716L338.674 174.14C338.778 174.308 338.89 174.46 339.01 174.596C339.138 174.732 339.278 174.848 339.43 174.944C339.582 175.04 339.754 175.116 339.946 175.172C340.138 175.22 340.362 175.244 340.618 175.244C341.21 175.244 341.658 175.112 341.962 174.848C342.266 174.576 342.418 174.192 342.418 173.696V173.6C342.418 173.104 342.266 172.724 341.962 172.46C341.658 172.188 341.21 172.052 340.618 172.052H339.634V171.176H340.546ZM348.209 176.144C347.209 176.144 346.477 175.764 346.013 175.004C345.557 174.244 345.329 173.18 345.329 171.812C345.329 170.444 345.557 169.38 346.013 168.62C346.477 167.86 347.209 167.48 348.209 167.48C349.209 167.48 349.937 167.86 350.393 168.62C350.857 169.38 351.089 170.444 351.089 171.812C351.089 173.18 350.857 174.244 350.393 175.004C349.937 175.764 349.209 176.144 348.209 176.144ZM348.209 175.268C348.537 175.268 348.817 175.2 349.049 175.064C349.281 174.928 349.469 174.736 349.613 174.488C349.757 174.24 349.861 173.948 349.925 173.612C349.997 173.276 350.033 172.904 350.033 172.496V171.128C350.033 170.72 349.997 170.348 349.925 170.012C349.861 169.676 349.757 169.384 349.613 169.136C349.469 168.888 349.281 168.696 349.049 168.56C348.817 168.424 348.537 168.356 348.209 168.356C347.881 168.356 347.601 168.424 347.369 168.56C347.137 168.696 346.949 168.888 346.805 169.136C346.661 169.384 346.553 169.676 346.481 170.012C346.417 170.348 346.385 170.72 346.385 171.128V172.496C346.385 172.904 346.417 173.276 346.481 173.612C346.553 173.948 346.661 174.24 346.805 174.488C346.949 174.736 347.137 174.928 347.369 175.064C347.601 175.2 347.881 175.268 348.209 175.268ZM355.405 176.144C354.405 176.144 353.673 175.764 353.209 175.004C352.753 174.244 352.525 173.18 352.525 171.812C352.525 170.444 352.753 169.38 353.209 168.62C353.673 167.86 354.405 167.48 355.405 167.48C356.405 167.48 357.133 167.86 357.589 168.62C358.053 169.38 358.285 170.444 358.285 171.812C358.285 173.18 358.053 174.244 357.589 175.004C357.133 175.764 356.405 176.144 355.405 176.144ZM355.405 175.268C355.733 175.268 356.013 175.2 356.245 175.064C356.477 174.928 356.665 174.736 356.809 174.488C356.953 174.24 357.057 173.948 357.121 173.612C357.193 173.276 357.229 172.904 357.229 172.496V171.128C357.229 170.72 357.193 170.348 357.121 170.012C357.057 169.676 356.953 169.384 356.809 169.136C356.665 168.888 356.477 168.696 356.245 168.56C356.013 168.424 355.733 168.356 355.405 168.356C355.077 168.356 354.797 168.424 354.565 168.56C354.333 168.696 354.145 168.888 354.001 169.136C353.857 169.384 353.749 169.676 353.677 170.012C353.613 170.348 353.581 170.72 353.581 171.128V172.496C353.581 172.904 353.613 173.276 353.677 173.612C353.749 173.948 353.857 174.24 354.001 174.488C354.145 174.736 354.333 174.928 354.565 175.064C354.797 175.2 355.077 175.268 355.405 175.268Z" fill="white"/>
<path d="M316 211L-5.37305 211" stroke="#393547" stroke-dasharray="7 7"/>
<path opacity="0.4" d="M333.482 216.984V216C332.874 215.96 332.358 215.812 331.934 215.556C331.518 215.292 331.162 214.964 330.866 214.572L331.574 213.936C331.83 214.28 332.11 214.556 332.414 214.764C332.726 214.964 333.086 215.092 333.494 215.148V212.064C332.67 211.88 332.066 211.612 331.682 211.26C331.306 210.9 331.118 210.408 331.118 209.784C331.118 209.464 331.174 209.18 331.286 208.932C331.406 208.676 331.57 208.456 331.778 208.272C331.986 208.088 332.234 207.944 332.522 207.84C332.81 207.728 333.13 207.656 333.482 207.624V206.64H334.226V207.612C334.77 207.66 335.238 207.8 335.63 208.032C336.03 208.256 336.374 208.568 336.662 208.968L335.93 209.52C335.73 209.24 335.49 209.012 335.21 208.836C334.93 208.652 334.598 208.532 334.214 208.476V211.284L334.322 211.308C335.154 211.492 335.758 211.764 336.134 212.124C336.518 212.476 336.71 212.968 336.71 213.6C336.71 214.288 336.486 214.844 336.038 215.268C335.598 215.684 334.994 215.928 334.226 216V216.984H333.482ZM335.762 213.66C335.762 213.252 335.642 212.94 335.402 212.724C335.17 212.508 334.774 212.332 334.214 212.196V215.148C334.694 215.084 335.07 214.924 335.342 214.668C335.622 214.404 335.762 214.068 335.762 213.66ZM332.066 209.712C332.066 210.12 332.182 210.428 332.414 210.636C332.654 210.836 333.014 211 333.494 211.128V208.476C333.062 208.532 332.714 208.664 332.45 208.872C332.194 209.08 332.066 209.36 332.066 209.712ZM343.81 216H338.314V214.968L341.05 212.448C341.442 212.088 341.77 211.708 342.034 211.308C342.298 210.9 342.43 210.492 342.43 210.084V209.94C342.43 209.476 342.302 209.1 342.046 208.812C341.79 208.524 341.402 208.38 340.882 208.38C340.626 208.38 340.402 208.416 340.21 208.488C340.018 208.56 339.85 208.66 339.706 208.788C339.57 208.916 339.454 209.068 339.358 209.244C339.27 209.412 339.198 209.596 339.142 209.796L338.242 209.448C338.322 209.2 338.43 208.96 338.566 208.728C338.71 208.488 338.886 208.276 339.094 208.092C339.31 207.908 339.566 207.76 339.862 207.648C340.166 207.536 340.522 207.48 340.93 207.48C341.338 207.48 341.702 207.54 342.022 207.66C342.342 207.78 342.61 207.948 342.826 208.164C343.042 208.38 343.206 208.636 343.318 208.932C343.438 209.228 343.498 209.556 343.498 209.916C343.498 210.244 343.45 210.548 343.354 210.828C343.266 211.108 343.142 211.376 342.982 211.632C342.822 211.88 342.626 212.124 342.394 212.364C342.17 212.604 341.926 212.844 341.662 213.084L339.406 215.112H343.81V216ZM348.209 216.144C347.209 216.144 346.477 215.764 346.013 215.004C345.557 214.244 345.329 213.18 345.329 211.812C345.329 210.444 345.557 209.38 346.013 208.62C346.477 207.86 347.209 207.48 348.209 207.48C349.209 207.48 349.937 207.86 350.393 208.62C350.857 209.38 351.089 210.444 351.089 211.812C351.089 213.18 350.857 214.244 350.393 215.004C349.937 215.764 349.209 216.144 348.209 216.144ZM348.209 215.268C348.537 215.268 348.817 215.2 349.049 215.064C349.281 214.928 349.469 214.736 349.613 214.488C349.757 214.24 349.861 213.948 349.925 213.612C349.997 213.276 350.033 212.904 350.033 212.496V211.128C350.033 210.72 349.997 210.348 349.925 210.012C349.861 209.676 349.757 209.384 349.613 209.136C349.469 208.888 349.281 208.696 349.049 208.56C348.817 208.424 348.537 208.356 348.209 208.356C347.881 208.356 347.601 208.424 347.369 208.56C347.137 208.696 346.949 208.888 346.805 209.136C346.661 209.384 346.553 209.676 346.481 210.012C346.417 210.348 346.385 210.72 346.385 211.128V212.496C346.385 212.904 346.417 213.276 346.481 213.612C346.553 213.948 346.661 214.24 346.805 214.488C346.949 214.736 347.137 214.928 347.369 215.064C347.601 215.2 347.881 215.268 348.209 215.268ZM355.405 216.144C354.405 216.144 353.673 215.764 353.209 215.004C352.753 214.244 352.525 213.18 352.525 211.812C352.525 210.444 352.753 209.38 353.209 208.62C353.673 207.86 354.405 207.48 355.405 207.48C356.405 207.48 357.133 207.86 357.589 208.62C358.053 209.38 358.285 210.444 358.285 211.812C358.285 213.18 358.053 214.244 357.589 215.004C357.133 215.764 356.405 216.144 355.405 216.144ZM355.405 215.268C355.733 215.268 356.013 215.2 356.245 215.064C356.477 214.928 356.665 214.736 356.809 214.488C356.953 214.24 357.057 213.948 357.121 213.612C357.193 213.276 357.229 212.904 357.229 212.496V211.128C357.229 210.72 357.193 210.348 357.121 210.012C357.057 209.676 356.953 209.384 356.809 209.136C356.665 208.888 356.477 208.696 356.245 208.56C356.013 208.424 355.733 208.356 355.405 208.356C355.077 208.356 354.797 208.424 354.565 208.56C354.333 208.696 354.145 208.888 354.001 209.136C353.857 209.384 353.749 209.676 353.677 210.012C353.613 210.348 353.581 210.72 353.581 211.128V212.496C353.581 212.904 353.613 213.276 353.677 213.612C353.749 213.948 353.857 214.24 354.001 214.488C354.145 214.736 354.333 214.928 354.565 215.064C354.797 215.2 355.077 215.268 355.405 215.268Z" fill="white"/>
<path opacity="0.4" d="M333.482 256.984V256C332.874 255.96 332.358 255.812 331.934 255.556C331.518 255.292 331.162 254.964 330.866 254.572L331.574 253.936C331.83 254.28 332.11 254.556 332.414 254.764C332.726 254.964 333.086 255.092 333.494 255.148V252.064C332.67 251.88 332.066 251.612 331.682 251.26C331.306 250.9 331.118 250.408 331.118 249.784C331.118 249.464 331.174 249.18 331.286 248.932C331.406 248.676 331.57 248.456 331.778 248.272C331.986 248.088 332.234 247.944 332.522 247.84C332.81 247.728 333.13 247.656 333.482 247.624V246.64H334.226V247.612C334.77 247.66 335.238 247.8 335.63 248.032C336.03 248.256 336.374 248.568 336.662 248.968L335.93 249.52C335.73 249.24 335.49 249.012 335.21 248.836C334.93 248.652 334.598 248.532 334.214 248.476V251.284L334.322 251.308C335.154 251.492 335.758 251.764 336.134 252.124C336.518 252.476 336.71 252.968 336.71 253.6C336.71 254.288 336.486 254.844 336.038 255.268C335.598 255.684 334.994 255.928 334.226 256V256.984H333.482ZM335.762 253.66C335.762 253.252 335.642 252.94 335.402 252.724C335.17 252.508 334.774 252.332 334.214 252.196V255.148C334.694 255.084 335.07 254.924 335.342 254.668C335.622 254.404 335.762 254.068 335.762 253.66ZM332.066 249.712C332.066 250.12 332.182 250.428 332.414 250.636C332.654 250.836 333.014 251 333.494 251.128V248.476C333.062 248.532 332.714 248.664 332.45 248.872C332.194 249.08 332.066 249.36 332.066 249.712ZM338.47 256V255.112H340.81V248.368H340.726L338.614 250.336L338.026 249.7L340.246 247.624H341.818V255.112H343.978V256H338.47ZM348.209 256.144C347.209 256.144 346.477 255.764 346.013 255.004C345.557 254.244 345.329 253.18 345.329 251.812C345.329 250.444 345.557 249.38 346.013 248.62C346.477 247.86 347.209 247.48 348.209 247.48C349.209 247.48 349.937 247.86 350.393 248.62C350.857 249.38 351.089 250.444 351.089 251.812C351.089 253.18 350.857 254.244 350.393 255.004C349.937 255.764 349.209 256.144 348.209 256.144ZM348.209 255.268C348.537 255.268 348.817 255.2 349.049 255.064C349.281 254.928 349.469 254.736 349.613 254.488C349.757 254.24 349.861 253.948 349.925 253.612C349.997 253.276 350.033 252.904 350.033 252.496V251.128C350.033 250.72 349.997 250.348 349.925 250.012C349.861 249.676 349.757 249.384 349.613 249.136C349.469 248.888 349.281 248.696 349.049 248.56C348.817 248.424 348.537 248.356 348.209 248.356C347.881 248.356 347.601 248.424 347.369 248.56C347.137 248.696 346.949 248.888 346.805 249.136C346.661 249.384 346.553 249.676 346.481 250.012C346.417 250.348 346.385 250.72 346.385 251.128V252.496C346.385 252.904 346.417 253.276 346.481 253.612C346.553 253.948 346.661 254.24 346.805 254.488C346.949 254.736 347.137 254.928 347.369 255.064C347.601 255.2 347.881 255.268 348.209 255.268ZM355.405 256.144C354.405 256.144 353.673 255.764 353.209 255.004C352.753 254.244 352.525 253.18 352.525 251.812C352.525 250.444 352.753 249.38 353.209 248.62C353.673 247.86 354.405 247.48 355.405 247.48C356.405 247.48 357.133 247.86 357.589 248.62C358.053 249.38 358.285 250.444 358.285 251.812C358.285 253.18 358.053 254.244 357.589 255.004C357.133 255.764 356.405 256.144 355.405 256.144ZM355.405 255.268C355.733 255.268 356.013 255.2 356.245 255.064C356.477 254.928 356.665 254.736 356.809 254.488C356.953 254.24 357.057 253.948 357.121 253.612C357.193 253.276 357.229 252.904 357.229 252.496V251.128C357.229 250.72 357.193 250.348 357.121 250.012C357.057 249.676 356.953 249.384 356.809 249.136C356.665 248.888 356.477 248.696 356.245 248.56C356.013 248.424 355.733 248.356 355.405 248.356C355.077 248.356 354.797 248.424 354.565 248.56C354.333 248.696 354.145 248.888 354.001 249.136C353.857 249.384 353.749 249.676 353.677 250.012C353.613 250.348 353.581 250.72 353.581 251.128V252.496C353.581 252.904 353.613 253.276 353.677 253.612C353.749 253.948 353.857 254.24 354.001 254.488C354.145 254.736 354.333 254.928 354.565 255.064C354.797 255.2 355.077 255.268 355.405 255.268Z" fill="white"/>
<rect x="288.704" y="38.4853" width="1.40289" height="51.9068" fill="#373737"/>
<rect x="284.495" y="55.3199" width="9.8202" height="19.6404" rx="2" fill="url(#paint0_linear_201_7228)"/>
<rect x="304.135" y="34.2764" width="1.40289" height="57.5183" fill="#373737"/>
<rect x="299.927" y="51.111" width="9.8202" height="23.849" rx="2" fill="url(#paint1_linear_201_7228)"/>
<rect x="318.164" y="23.0536" width="1.40289" height="36.475" fill="#373737"/>
<rect x="313.956" y="39.8882" width="9.8202" height="2.80577" rx="1.40289" fill="url(#paint2_linear_201_7228)"/>
<rect x="82.4796" y="168.954" width="1.40289" height="72.95" fill="#373737"/>
<rect x="78.271" y="185.789" width="9.8202" height="39.2808" rx="2" fill="url(#paint3_linear_201_7228)"/>
<rect x="111.94" y="119.853" width="1.40289" height="57.5183" fill="#373737"/>
<rect x="107.732" y="136.687" width="9.8202" height="23.849" rx="2" fill="url(#paint4_linear_201_7228)"/>
<rect x="155.43" y="79.169" width="1.40289" height="67.3385" fill="#373737"/>
<rect x="151.221" y="96.0036" width="9.8202" height="33.6692" rx="2" fill="url(#paint5_linear_201_7228)"/>
<rect x="170.861" y="79.169" width="1.40289" height="74.3529" fill="#373737"/>
<rect x="166.653" y="96.0036" width="9.8202" height="40.6837" rx="2" fill="url(#paint6_linear_201_7228)"/>
<rect x="37.5873" y="122.658" width="1.40289" height="67.3385" fill="#373737"/>
<rect x="33.3787" y="156.328" width="9.8202" height="1.40289" rx="0.701443" fill="url(#paint7_linear_201_7228)"/>
<rect x="67.0479" y="185.788" width="1.40289" height="53.3096" fill="#373737"/>
<rect x="62.8392" y="202.623" width="9.8202" height="19.6404" rx="2" fill="url(#paint8_linear_201_7228)"/>
<rect x="125.969" y="119.853" width="1.40289" height="47.6981" fill="#373737"/>
<rect x="121.76" y="136.687" width="9.8202" height="14.0289" rx="2" fill="url(#paint9_linear_201_7228)"/>
<rect x="141.401" y="119.853" width="1.40289" height="61.7269" fill="#373737"/>
<rect x="137.192" y="136.687" width="9.8202" height="28.0577" rx="2" fill="url(#paint10_linear_201_7228)"/>
<rect x="96.5084" y="150.716" width="1.40289" height="44.8923" fill="#373737"/>
<rect x="92.2998" y="167.55" width="9.8202" height="11.2231" rx="2" fill="url(#paint11_linear_201_7228)"/>
<rect x="53.0189" y="149.313" width="1.40289" height="63.1298" fill="#373737"/>
<rect x="48.8103" y="166.148" width="9.8202" height="29.4606" rx="2" fill="url(#paint12_linear_201_7228)"/>
<rect x="23.5583" y="139.493" width="1.40289" height="57.5183" fill="#373737"/>
<rect x="19.3497" y="156.328" width="9.8202" height="23.849" rx="2" fill="url(#paint13_linear_201_7228)"/>
<rect x="8.12659" y="149.313" width="1.40289" height="47.6981" fill="#373737"/>
<rect x="3.91797" y="166.148" width="9.8202" height="14.0289" rx="2" fill="url(#paint14_linear_201_7228)"/>
<rect x="186.293" y="70.752" width="1.40289" height="84.1731" fill="#373737"/>
<rect x="182.084" y="87.5866" width="9.8202" height="50.5039" rx="2" fill="url(#paint15_linear_201_7228)"/>
<rect x="274.675" y="38.4853" width="1.40289" height="110.828" fill="#373737"/>
<rect x="270.466" y="55.3199" width="9.8202" height="78.5616" rx="2" fill="url(#paint16_linear_201_7228)"/>
<rect x="259.243" y="0.607422" width="1.40289" height="74.3529" fill="#373737"/>
<rect x="255.034" y="17.442" width="9.8202" height="40.6837" rx="2" fill="url(#paint17_linear_201_7228)"/>
<rect x="245.214" y="0.607422" width="1.40289" height="88.3818" fill="#373737"/>
<rect x="241.006" y="17.442" width="9.8202" height="54.7125" rx="2" fill="url(#paint18_linear_201_7228)"/>
<rect x="229.783" y="27.2627" width="1.40289" height="61.7269" fill="#373737"/>
<rect x="225.574" y="44.0973" width="9.8202" height="28.0577" rx="2" fill="url(#paint19_linear_201_7228)"/>
<rect x="215.754" y="7.62186" width="1.40289" height="46.2952" fill="#373737"/>
<rect x="211.545" y="24.4565" width="9.8202" height="12.626" rx="2" fill="url(#paint20_linear_201_7228)"/>
<rect x="200.322" y="7.62186" width="1.40289" height="88.3818" fill="#373737"/>
<rect x="196.113" y="24.4565" width="9.8202" height="54.7125" rx="2" fill="url(#paint21_linear_201_7228)"/>
<path opacity="0.56" d="M25.517 283.944H25.457L24.749 285.348L22.745 288.996L20.741 285.348L20.033 283.944H19.973V291H18.989V282.624H20.333L22.733 287.136H22.793L25.205 282.624H26.501V291H25.517V283.944ZM30.9593 291.144C30.5353 291.144 30.1513 291.068 29.8073 290.916C29.4713 290.764 29.1793 290.548 28.9313 290.268C28.6913 289.98 28.5033 289.64 28.3673 289.248C28.2393 288.848 28.1753 288.4 28.1753 287.904C28.1753 287.416 28.2393 286.972 28.3673 286.572C28.5033 286.172 28.6913 285.832 28.9313 285.552C29.1793 285.264 29.4713 285.044 29.8073 284.892C30.1513 284.74 30.5353 284.664 30.9593 284.664C31.3753 284.664 31.7473 284.74 32.0753 284.892C32.4033 285.044 32.6833 285.256 32.9153 285.528C33.1473 285.792 33.3233 286.108 33.4433 286.476C33.5713 286.844 33.6353 287.248 33.6353 287.688V288.144H29.1833V288.432C29.1833 288.696 29.2233 288.944 29.3033 289.176C29.3913 289.4 29.5113 289.596 29.6633 289.764C29.8233 289.932 30.0153 290.064 30.2393 290.16C30.4713 290.256 30.7313 290.304 31.0193 290.304C31.4113 290.304 31.7513 290.212 32.0393 290.028C32.3353 289.844 32.5633 289.58 32.7233 289.236L33.4073 289.728C33.2073 290.152 32.8953 290.496 32.4713 290.76C32.0473 291.016 31.5433 291.144 30.9593 291.144ZM30.9593 285.468C30.6953 285.468 30.4553 285.516 30.2393 285.612C30.0233 285.7 29.8353 285.828 29.6753 285.996C29.5233 286.164 29.4033 286.364 29.3153 286.596C29.2273 286.82 29.1833 287.068 29.1833 287.34V287.424H32.6033V287.292C32.6033 286.74 32.4513 286.3 32.1473 285.972C31.8513 285.636 31.4553 285.468 30.9593 285.468ZM38.9747 284.808H39.9227L37.1507 292.44C37.0787 292.624 37.0067 292.776 36.9347 292.896C36.8627 293.024 36.7747 293.124 36.6707 293.196C36.5667 293.268 36.4347 293.32 36.2747 293.352C36.1227 293.384 35.9347 293.4 35.7107 293.4H35.2187V292.56H36.1907L36.6587 291.24L34.3427 284.808H35.3027L36.7907 289.02L37.0787 290.028H37.1387L37.4747 289.02L38.9747 284.808Z" fill="white"/>
<path opacity="0.56" d="M66.8607 291V290.112H69.2007V283.368H69.1167L67.0047 285.336L66.4167 284.7L68.6367 282.624H70.2087V290.112H72.3687V291H66.8607ZM75.1 291L78.304 283.488H74.728V285.048H73.828V282.624H79.324V283.512L76.18 291H75.1Z" fill="white"/>
<path opacity="0.56" d="M112.185 282.624V288.828C112.185 289.18 112.125 289.5 112.005 289.788C111.893 290.076 111.729 290.32 111.513 290.52C111.305 290.72 111.053 290.876 110.757 290.988C110.461 291.092 110.137 291.144 109.785 291.144C109.137 291.144 108.613 290.972 108.213 290.628C107.821 290.276 107.569 289.812 107.457 289.236L108.369 289.02C108.449 289.38 108.601 289.676 108.825 289.908C109.049 290.132 109.377 290.244 109.809 290.244C110.241 290.244 110.577 290.112 110.817 289.848C111.057 289.584 111.177 289.184 111.177 288.648V283.512H108.297V282.624H112.185ZM118.074 289.992H118.026C117.962 290.136 117.882 290.28 117.786 290.424C117.698 290.56 117.586 290.684 117.45 290.796C117.314 290.9 117.15 290.984 116.958 291.048C116.766 291.112 116.542 291.144 116.286 291.144C115.646 291.144 115.138 290.94 114.762 290.532C114.386 290.116 114.198 289.532 114.198 288.78V284.808H115.158V288.612C115.158 289.724 115.63 290.28 116.574 290.28C116.766 290.28 116.95 290.256 117.126 290.208C117.31 290.16 117.47 290.088 117.606 289.992C117.75 289.896 117.862 289.776 117.942 289.632C118.03 289.48 118.074 289.3 118.074 289.092V284.808H119.034V291H118.074V289.992ZM121.079 291V284.808H122.039V285.816H122.087C122.239 285.464 122.451 285.184 122.723 284.976C123.003 284.768 123.375 284.664 123.839 284.664C124.479 284.664 124.983 284.872 125.351 285.288C125.727 285.696 125.915 286.276 125.915 287.028V291H124.955V287.196C124.955 286.084 124.487 285.528 123.551 285.528C123.359 285.528 123.171 285.552 122.987 285.6C122.811 285.648 122.651 285.72 122.507 285.816C122.363 285.912 122.247 286.036 122.159 286.188C122.079 286.332 122.039 286.504 122.039 286.704V291H121.079Z" fill="white"/>
<path opacity="0.56" d="M160.201 291H154.705V289.968L157.441 287.448C157.833 287.088 158.161 286.708 158.425 286.308C158.689 285.9 158.821 285.492 158.821 285.084V284.94C158.821 284.476 158.693 284.1 158.437 283.812C158.181 283.524 157.793 283.38 157.273 283.38C157.017 283.38 156.793 283.416 156.601 283.488C156.409 283.56 156.241 283.66 156.097 283.788C155.961 283.916 155.845 284.068 155.749 284.244C155.661 284.412 155.589 284.596 155.533 284.796L154.633 284.448C154.713 284.2 154.821 283.96 154.957 283.728C155.101 283.488 155.277 283.276 155.485 283.092C155.701 282.908 155.957 282.76 156.253 282.648C156.557 282.536 156.913 282.48 157.321 282.48C157.729 282.48 158.093 282.54 158.413 282.66C158.733 282.78 159.001 282.948 159.217 283.164C159.433 283.38 159.597 283.636 159.709 283.932C159.829 284.228 159.889 284.556 159.889 284.916C159.889 285.244 159.841 285.548 159.745 285.828C159.657 286.108 159.533 286.376 159.373 286.632C159.213 286.88 159.017 287.124 158.785 287.364C158.561 287.604 158.317 287.844 158.053 288.084L155.797 290.112H160.201V291ZM162.056 291V290.112H164.396V283.368H164.312L162.2 285.336L161.612 284.7L163.832 282.624H165.404V290.112H167.564V291H162.056Z" fill="white"/>
<path opacity="0.56" d="M201.96 282.624V288.828C201.96 289.18 201.9 289.5 201.78 289.788C201.668 290.076 201.504 290.32 201.288 290.52C201.08 290.72 200.828 290.876 200.532 290.988C200.236 291.092 199.912 291.144 199.56 291.144C198.912 291.144 198.388 290.972 197.988 290.628C197.596 290.276 197.344 289.812 197.232 289.236L198.144 289.02C198.224 289.38 198.376 289.676 198.6 289.908C198.824 290.132 199.152 290.244 199.584 290.244C200.016 290.244 200.352 290.112 200.592 289.848C200.832 289.584 200.952 289.184 200.952 288.648V283.512H198.072V282.624H201.96ZM207.85 289.992H207.802C207.738 290.136 207.658 290.28 207.562 290.424C207.474 290.56 207.362 290.684 207.226 290.796C207.09 290.9 206.926 290.984 206.734 291.048C206.542 291.112 206.318 291.144 206.062 291.144C205.422 291.144 204.914 290.94 204.538 290.532C204.162 290.116 203.974 289.532 203.974 288.78V284.808H204.934V288.612C204.934 289.724 205.406 290.28 206.35 290.28C206.542 290.28 206.726 290.256 206.902 290.208C207.086 290.16 207.246 290.088 207.382 289.992C207.526 289.896 207.638 289.776 207.718 289.632C207.806 289.48 207.85 289.3 207.85 289.092V284.808H208.81V291H207.85V289.992ZM211.874 291C211.538 291 211.282 290.908 211.106 290.724C210.938 290.532 210.854 290.292 210.854 290.004V282.12H211.814V290.16H212.726V291H211.874Z" fill="white"/>
<path opacity="0.56" d="M242.861 291V290.112H245.201V283.368H245.117L243.005 285.336L242.417 284.7L244.637 282.624H246.209V290.112H248.369V291H242.861ZM254.976 283.512H251.304L251.064 286.704H251.148C251.348 286.424 251.572 286.2 251.82 286.032C252.076 285.864 252.424 285.78 252.864 285.78C253.224 285.78 253.556 285.84 253.86 285.96C254.164 286.08 254.428 286.252 254.652 286.476C254.876 286.692 255.048 286.96 255.168 287.28C255.296 287.6 255.36 287.964 255.36 288.372C255.36 288.78 255.296 289.156 255.168 289.5C255.04 289.836 254.852 290.128 254.604 290.376C254.364 290.616 254.068 290.804 253.716 290.94C253.372 291.076 252.98 291.144 252.54 291.144C252.188 291.144 251.876 291.104 251.604 291.024C251.34 290.944 251.104 290.836 250.896 290.7C250.688 290.564 250.504 290.412 250.344 290.244C250.192 290.076 250.052 289.9 249.924 289.716L250.68 289.14C250.784 289.308 250.892 289.46 251.004 289.596C251.124 289.732 251.252 289.848 251.388 289.944C251.532 290.04 251.696 290.116 251.88 290.172C252.064 290.22 252.284 290.244 252.54 290.244C253.116 290.244 253.552 290.092 253.848 289.788C254.144 289.484 254.292 289.056 254.292 288.504V288.384C254.292 287.832 254.144 287.404 253.848 287.1C253.552 286.796 253.116 286.644 252.54 286.644C252.156 286.644 251.852 286.716 251.628 286.86C251.412 286.996 251.216 287.16 251.04 287.352L250.188 287.232L250.488 282.624H254.976V283.512Z" fill="white"/>
<path opacity="0.56" d="M288.936 291L288.096 288.528H284.712L283.872 291H282.852L285.78 282.624H287.064L289.992 291H288.936ZM286.428 283.56H286.368L284.952 287.64H287.844L286.428 283.56ZM295.1 289.992H295.052C294.988 290.136 294.908 290.28 294.812 290.424C294.724 290.56 294.612 290.684 294.476 290.796C294.34 290.9 294.176 290.984 293.984 291.048C293.792 291.112 293.568 291.144 293.312 291.144C292.672 291.144 292.164 290.94 291.788 290.532C291.412 290.116 291.224 289.532 291.224 288.78V284.808H292.184V288.612C292.184 289.724 292.656 290.28 293.6 290.28C293.792 290.28 293.976 290.256 294.152 290.208C294.336 290.16 294.496 290.088 294.632 289.992C294.776 289.896 294.888 289.776 294.968 289.632C295.056 289.48 295.1 289.3 295.1 289.092V284.808H296.06V291H295.1V289.992ZM303.324 291.684C303.324 292.324 303.072 292.792 302.568 293.088C302.072 293.392 301.324 293.544 300.324 293.544C299.356 293.544 298.66 293.412 298.236 293.148C297.812 292.884 297.6 292.508 297.6 292.02C297.6 291.684 297.688 291.42 297.864 291.228C298.04 291.044 298.28 290.908 298.584 290.82V290.688C298.216 290.512 298.032 290.224 298.032 289.824C298.032 289.512 298.132 289.276 298.332 289.116C298.532 288.948 298.788 288.824 299.1 288.744V288.696C298.732 288.52 298.444 288.268 298.236 287.94C298.036 287.612 297.936 287.232 297.936 286.8C297.936 286.488 297.992 286.2 298.104 285.936C298.216 285.672 298.372 285.448 298.572 285.264C298.78 285.072 299.024 284.924 299.304 284.82C299.592 284.716 299.912 284.664 300.264 284.664C300.704 284.664 301.096 284.744 301.44 284.904V284.796C301.44 284.556 301.496 284.36 301.608 284.208C301.72 284.048 301.904 283.968 302.16 283.968H303.084V284.808H301.908V285.204C302.132 285.396 302.304 285.628 302.424 285.9C302.552 286.164 302.616 286.464 302.616 286.8C302.616 287.112 302.56 287.4 302.448 287.664C302.336 287.928 302.176 288.156 301.968 288.348C301.768 288.532 301.524 288.676 301.236 288.78C300.948 288.884 300.628 288.936 300.276 288.936C300.076 288.936 299.876 288.916 299.676 288.876C299.468 288.932 299.28 289.016 299.112 289.128C298.944 289.232 298.86 289.38 298.86 289.572C298.86 289.756 298.948 289.88 299.124 289.944C299.3 290.008 299.528 290.04 299.808 290.04H301.128C301.896 290.04 302.452 290.188 302.796 290.484C303.148 290.772 303.324 291.172 303.324 291.684ZM302.424 291.756C302.424 291.508 302.328 291.308 302.136 291.156C301.952 291.012 301.62 290.94 301.14 290.94H299.076C298.692 291.116 298.5 291.396 298.5 291.78C298.5 292.052 298.6 292.284 298.8 292.476C299.008 292.668 299.356 292.764 299.844 292.764H300.732C301.268 292.764 301.684 292.68 301.98 292.512C302.276 292.344 302.424 292.092 302.424 291.756ZM300.276 288.168C300.684 288.168 301.008 288.072 301.248 287.88C301.488 287.68 301.608 287.376 301.608 286.968V286.632C301.608 286.224 301.488 285.924 301.248 285.732C301.008 285.532 300.684 285.432 300.276 285.432C299.868 285.432 299.544 285.532 299.304 285.732C299.064 285.924 298.944 286.224 298.944 286.632V286.968C298.944 287.376 299.064 287.68 299.304 287.88C299.544 288.072 299.868 288.168 300.276 288.168Z" fill="white"/>
<path opacity="0.56" d="M330.861 291V290.112H333.201V283.368H333.117L331.005 285.336L330.417 284.7L332.637 282.624H334.209V290.112H336.369V291H330.861ZM340.6 291.144C340.12 291.144 339.7 291.084 339.34 290.964C338.98 290.836 338.676 290.664 338.428 290.448C338.188 290.232 338.004 289.976 337.876 289.68C337.756 289.384 337.696 289.064 337.696 288.72C337.696 288.144 337.852 287.688 338.164 287.352C338.476 287.016 338.884 286.78 339.388 286.644V286.548C338.948 286.396 338.596 286.152 338.332 285.816C338.076 285.472 337.948 285.06 337.948 284.58C337.948 283.94 338.18 283.432 338.644 283.056C339.108 282.672 339.76 282.48 340.6 282.48C341.44 282.48 342.092 282.672 342.556 283.056C343.02 283.432 343.252 283.94 343.252 284.58C343.252 285.06 343.12 285.472 342.856 285.816C342.6 286.152 342.252 286.396 341.812 286.548V286.644C342.316 286.78 342.724 287.016 343.036 287.352C343.348 287.688 343.504 288.144 343.504 288.72C343.504 289.064 343.44 289.384 343.312 289.68C343.192 289.976 343.008 290.232 342.76 290.448C342.52 290.664 342.22 290.836 341.86 290.964C341.5 291.084 341.08 291.144 340.6 291.144ZM340.6 290.268C341.184 290.268 341.636 290.14 341.956 289.884C342.276 289.62 342.436 289.248 342.436 288.768V288.516C342.436 288.036 342.276 287.668 341.956 287.412C341.636 287.148 341.184 287.016 340.6 287.016C340.016 287.016 339.564 287.148 339.244 287.412C338.924 287.668 338.764 288.036 338.764 288.516V288.768C338.764 289.248 338.924 289.62 339.244 289.884C339.564 290.14 340.016 290.268 340.6 290.268ZM340.6 286.176C341.128 286.176 341.528 286.064 341.8 285.84C342.072 285.616 342.208 285.288 342.208 284.856V284.676C342.208 284.244 342.072 283.916 341.8 283.692C341.528 283.468 341.128 283.356 340.6 283.356C340.072 283.356 339.672 283.468 339.4 283.692C339.128 283.916 338.992 284.244 338.992 284.676V284.856C338.992 285.288 339.128 285.616 339.4 285.84C339.672 286.064 340.072 286.176 340.6 286.176Z" fill="white"/>
<defs>
<linearGradient id="paint0_linear_201_7228" x1="289.405" y1="55.3199" x2="289.405" y2="74.9603" gradientUnits="userSpaceOnUse">
<stop stop-color="#EE5684"/>
<stop offset="1" stop-color="#AA4463"/>
</linearGradient>
<linearGradient id="paint1_linear_201_7228" x1="304.837" y1="51.111" x2="304.837" y2="74.96" gradientUnits="userSpaceOnUse">
<stop stop-color="#37CBB0"/>
<stop offset="1" stop-color="#218674"/>
</linearGradient>
<linearGradient id="paint2_linear_201_7228" x1="318.866" y1="39.8882" x2="318.866" y2="42.694" gradientUnits="userSpaceOnUse">
<stop stop-color="#37CBB0"/>
<stop offset="1" stop-color="#218674"/>
</linearGradient>
<linearGradient id="paint3_linear_201_7228" x1="83.1811" y1="185.789" x2="83.1811" y2="225.07" gradientUnits="userSpaceOnUse">
<stop stop-color="#37CBB0"/>
<stop offset="1" stop-color="#218674"/>
</linearGradient>
<linearGradient id="paint4_linear_201_7228" x1="112.642" y1="136.687" x2="112.642" y2="160.536" gradientUnits="userSpaceOnUse">
<stop stop-color="#37CBB0"/>
<stop offset="1" stop-color="#218674"/>
</linearGradient>
<linearGradient id="paint5_linear_201_7228" x1="156.131" y1="96.0036" x2="156.131" y2="129.673" gradientUnits="userSpaceOnUse">
<stop stop-color="#37CBB0"/>
<stop offset="1" stop-color="#218674"/>
</linearGradient>
<linearGradient id="paint6_linear_201_7228" x1="171.563" y1="96.0036" x2="171.563" y2="136.687" gradientUnits="userSpaceOnUse">
<stop stop-color="#EE5684"/>
<stop offset="1" stop-color="#AA4463"/>
</linearGradient>
<linearGradient id="paint7_linear_201_7228" x1="38.2888" y1="156.328" x2="38.2888" y2="157.731" gradientUnits="userSpaceOnUse">
<stop stop-color="#EE5684"/>
<stop offset="1" stop-color="#AA4463"/>
</linearGradient>
<linearGradient id="paint8_linear_201_7228" x1="67.7493" y1="202.623" x2="67.7493" y2="222.263" gradientUnits="userSpaceOnUse">
<stop stop-color="#EE5684"/>
<stop offset="1" stop-color="#AA4463"/>
</linearGradient>
<linearGradient id="paint9_linear_201_7228" x1="126.67" y1="136.687" x2="126.67" y2="150.716" gradientUnits="userSpaceOnUse">
<stop stop-color="#EE5684"/>
<stop offset="1" stop-color="#AA4463"/>
</linearGradient>
<linearGradient id="paint10_linear_201_7228" x1="142.102" y1="136.687" x2="142.102" y2="164.745" gradientUnits="userSpaceOnUse">
<stop stop-color="#37CBB0"/>
<stop offset="1" stop-color="#218674"/>
</linearGradient>
<linearGradient id="paint11_linear_201_7228" x1="97.2099" y1="167.55" x2="97.2099" y2="178.774" gradientUnits="userSpaceOnUse">
<stop stop-color="#37CBB0"/>
<stop offset="1" stop-color="#218674"/>
</linearGradient>
<linearGradient id="paint12_linear_201_7228" x1="53.7204" y1="166.148" x2="53.7204" y2="195.608" gradientUnits="userSpaceOnUse">
<stop stop-color="#EE5684"/>
<stop offset="1" stop-color="#AA4463"/>
</linearGradient>
<linearGradient id="paint13_linear_201_7228" x1="24.2598" y1="156.328" x2="24.2598" y2="180.177" gradientUnits="userSpaceOnUse">
<stop stop-color="#37CBB0"/>
<stop offset="1" stop-color="#218674"/>
</linearGradient>
<linearGradient id="paint14_linear_201_7228" x1="8.82807" y1="166.148" x2="8.82807" y2="180.177" gradientUnits="userSpaceOnUse">
<stop stop-color="#37CBB0"/>
<stop offset="1" stop-color="#218674"/>
</linearGradient>
<linearGradient id="paint15_linear_201_7228" x1="186.995" y1="87.5866" x2="186.995" y2="138.09" gradientUnits="userSpaceOnUse">
<stop stop-color="#37CBB0"/>
<stop offset="1" stop-color="#218674"/>
</linearGradient>
<linearGradient id="paint16_linear_201_7228" x1="275.376" y1="55.3199" x2="275.376" y2="133.882" gradientUnits="userSpaceOnUse">
<stop stop-color="#37CBB0"/>
<stop offset="1" stop-color="#218674"/>
</linearGradient>
<linearGradient id="paint17_linear_201_7228" x1="259.945" y1="17.442" x2="259.945" y2="58.1257" gradientUnits="userSpaceOnUse">
<stop stop-color="#EE5684"/>
<stop offset="1" stop-color="#AA4463"/>
</linearGradient>
<linearGradient id="paint18_linear_201_7228" x1="245.916" y1="17.442" x2="245.916" y2="72.1546" gradientUnits="userSpaceOnUse">
<stop stop-color="#37CBB0"/>
<stop offset="1" stop-color="#218674"/>
</linearGradient>
<linearGradient id="paint19_linear_201_7228" x1="230.484" y1="44.0973" x2="230.484" y2="72.155" gradientUnits="userSpaceOnUse">
<stop stop-color="#EE5684"/>
<stop offset="1" stop-color="#AA4463"/>
</linearGradient>
<linearGradient id="paint20_linear_201_7228" x1="216.455" y1="24.4565" x2="216.455" y2="37.0824" gradientUnits="userSpaceOnUse">
<stop stop-color="#EE5684"/>
<stop offset="1" stop-color="#AA4463"/>
</linearGradient>
<linearGradient id="paint21_linear_201_7228" x1="201.023" y1="24.4565" x2="201.023" y2="79.169" gradientUnits="userSpaceOnUse">
<stop stop-color="#37CBB0"/>
<stop offset="1" stop-color="#218674"/>
</linearGradient>
</defs>
</svg>
