<svg width="81" height="42" viewBox="0 0 81 42" fill="none" xmlns="http://www.w3.org/2000/svg">
<path opacity="0.3" d="M1.28431 1.85742L0.5 0.87262V41.1274H80.5V18.5142L79.7157 17.5647C78.9314 16.6152 77.3627 14.7161 75.7941 14.4607C74.2255 14.2054 72.6569 15.5937 71.0882 16.8713C69.5196 18.1489 67.951 19.3157 66.3824 18.7391C64.8137 18.1624 63.2451 15.8422 61.6765 12.9085C60.1078 9.97481 58.5392 6.42757 56.9706 6.55518C55.402 6.68279 53.8333 10.4852 52.2647 12.7395C50.6961 14.9938 49.1275 15.6999 47.5588 16.1905C45.9902 16.6811 44.4216 16.9562 42.8529 15.6022C41.2843 14.2483 39.7157 11.2653 38.1471 9.25645C36.5784 7.24757 35.0098 6.21278 33.4412 5.73124C31.8726 5.2497 30.3039 5.32141 28.7353 5.95766C27.1667 6.59391 25.598 7.7947 24.0294 8.40451C22.4608 9.01432 20.8922 9.03314 19.3235 10.3536C17.7549 11.6741 16.1863 14.2963 14.6176 14.3902C13.049 14.4841 11.4804 12.0498 9.91177 10.3603C8.34314 8.67078 6.77451 7.72609 5.20588 6.26895C3.63725 4.81181 2.06863 2.84222 1.28431 1.85742Z" fill="url(#paint0_linear_8_1271)"/>
<path d="M0.5 0.87262L1.28431 1.85742C2.06863 2.84222 3.63726 4.81181 5.20588 6.26895C6.77451 7.72609 8.34314 8.67078 9.91177 10.3603C11.4804 12.0498 13.049 14.4841 14.6176 14.3902C16.1863 14.2963 17.7549 11.6741 19.3235 10.3536C20.8922 9.03314 22.4608 9.01432 24.0294 8.40451C25.598 7.7947 27.1667 6.59391 28.7353 5.95766C30.3039 5.32141 31.8726 5.2497 33.4412 5.73124C35.0098 6.21278 36.5784 7.24757 38.1471 9.25645C39.7157 11.2653 41.2843 14.2483 42.8529 15.6022C44.4216 16.9562 45.9902 16.6811 47.5588 16.1905C49.1275 15.6999 50.6961 14.9938 52.2647 12.7395C53.8333 10.4852 55.402 6.68279 56.9706 6.55518C58.5392 6.42757 60.1078 9.97481 61.6765 12.9085C63.2451 15.8422 64.8137 18.1624 66.3824 18.7391C67.951 19.3157 69.5196 18.1489 71.0882 16.8713C72.6569 15.5937 74.2255 14.2054 75.7941 14.4607C77.3627 14.7161 78.9314 16.6152 79.7157 17.5647L80.5 18.5142" stroke="#EE5684"/>
<defs>
<linearGradient id="paint0_linear_8_1271" x1="40.5" y1="0.87262" x2="40.5" y2="41.1274" gradientUnits="userSpaceOnUse">
<stop stop-color="#EE5684"/>
<stop offset="1" stop-color="#EE5684" stop-opacity="0"/>
</linearGradient>
</defs>
</svg>
