<svg width="18" height="19" viewBox="0 0 18 19" fill="none" xmlns="http://www.w3.org/2000/svg">
<path d="M16.9 18.4751L10.325 11.9001C9.825 12.3334 9.24167 12.6709 8.575 12.9126C7.90833 13.1543 7.2 13.2751 6.45 13.2751C4.65 13.2751 3.125 12.6501 1.875 11.4001C0.625 10.1501 0 8.64176 0 6.8751C0 5.10843 0.625 3.6001 1.875 2.3501C3.125 1.1001 4.64167 0.475098 6.425 0.475098C8.19167 0.475098 9.69583 1.1001 10.9375 2.3501C12.1792 3.6001 12.8 5.10843 12.8 6.8751C12.8 7.59176 12.6833 8.28343 12.45 8.9501C12.2167 9.61677 11.8667 10.2418 11.4 10.8251L18 17.3751L16.9 18.4751ZM6.425 11.7751C7.775 11.7751 8.925 11.2959 9.875 10.3376C10.825 9.37926 11.3 8.2251 11.3 6.8751C11.3 5.5251 10.825 4.37093 9.875 3.4126C8.925 2.45426 7.775 1.9751 6.425 1.9751C5.05833 1.9751 3.89583 2.45426 2.9375 3.4126C1.97917 4.37093 1.5 5.5251 1.5 6.8751C1.5 8.2251 1.97917 9.37926 2.9375 10.3376C3.89583 11.2959 5.05833 11.7751 6.425 11.7751Z" fill="white"/>
</svg>
