<svg width="16" height="21" viewBox="0 0 16 21" fill="none" xmlns="http://www.w3.org/2000/svg">
<path d="M0 17.5V16H2.1V8.35C2.1 6.95 2.5125 5.70417 3.3375 4.6125C4.1625 3.52083 5.25 2.83333 6.6 2.55V1.825C6.6 1.44167 6.7375 1.125 7.0125 0.875C7.2875 0.625 7.61667 0.5 8 0.5C8.38333 0.5 8.7125 0.625 8.9875 0.875C9.2625 1.125 9.4 1.44167 9.4 1.825V2.55C10.75 2.83333 11.8417 3.52083 12.675 4.6125C13.5083 5.70417 13.925 6.95 13.925 8.35V16H16V17.5H0ZM8 20.5C7.46667 20.5 7 20.3042 6.6 19.9125C6.2 19.5208 6 19.05 6 18.5H10C10 19.05 9.80417 19.5208 9.4125 19.9125C9.02083 20.3042 8.55 20.5 8 20.5ZM3.6 16H12.425V8.35C12.425 7.11667 12 6.06667 11.15 5.2C10.3 4.33333 9.25833 3.9 8.025 3.9C6.79167 3.9 5.74583 4.33333 4.8875 5.2C4.02917 6.06667 3.6 7.11667 3.6 8.35V16Z" fill="white"/>
</svg>
