<svg width="168" height="79" viewBox="0 0 168 79" fill="none" xmlns="http://www.w3.org/2000/svg">
<g clip-path="url(#clip0_8_1331)">
<path opacity="0.5" d="M2.14216 1.93267L0.5 0V79H168V34.6217L166.358 32.7582C164.716 30.8948 161.431 27.1678 158.147 26.6667C154.863 26.1655 151.578 28.8901 148.294 31.3974C145.01 33.9047 141.726 36.1946 138.441 35.0629C135.157 33.9312 131.873 29.3779 128.588 23.6204C125.304 17.863 122.02 10.9016 118.735 11.152C115.451 11.4025 112.167 18.8648 108.882 23.2888C105.598 27.7128 102.314 29.0985 99.0294 30.0613C95.7451 31.0241 92.4608 31.564 89.1765 28.9069C85.8922 26.2498 82.6078 20.3957 79.3235 16.4533C76.0392 12.5108 72.7549 10.4801 69.4706 9.53504C66.1863 8.59002 62.902 8.73075 59.6176 9.97939C56.3333 11.228 53.049 13.5846 49.7647 14.7813C46.4804 15.9781 43.1961 16.015 39.9118 18.6065C36.6275 21.198 33.3431 26.344 30.0588 26.5283C26.7745 26.7126 23.4902 21.9352 20.2059 18.6196C16.9216 15.3039 13.6373 13.4499 10.3529 10.5903C7.06863 7.73066 3.78431 3.86533 2.14216 1.93267Z" fill="url(#paint0_linear_8_1331)"/>
<path d="M0.5 0L2.14216 1.93267C3.78431 3.86533 7.06863 7.73066 10.3529 10.5903C13.6373 13.4499 16.9216 15.3039 20.2059 18.6196C23.4902 21.9352 26.7745 26.7126 30.0588 26.5283C33.3431 26.344 36.6275 21.198 39.9118 18.6065C43.1961 16.015 46.4804 15.9781 49.7647 14.7813C53.049 13.5846 56.3333 11.228 59.6177 9.97939C62.902 8.73075 66.1863 8.59002 69.4706 9.53504C72.7549 10.4801 76.0392 12.5108 79.3235 16.4533C82.6078 20.3957 85.8922 26.2498 89.1765 28.9069C92.4608 31.564 95.7451 31.0241 99.0294 30.0613C102.314 29.0985 105.598 27.7128 108.882 23.2888C112.167 18.8648 115.451 11.4025 118.735 11.152C122.02 10.9016 125.304 17.863 128.588 23.6204C131.873 29.3779 135.157 33.9312 138.441 35.0629C141.726 36.1946 145.01 33.9047 148.294 31.3974C151.578 28.8901 154.863 26.1655 158.147 26.6667C161.431 27.1678 164.716 30.8948 166.358 32.7582L168 34.6217" stroke="url(#paint1_linear_8_1331)" stroke-linecap="round"/>
</g>
<defs>
<linearGradient id="paint0_linear_8_1331" x1="84.25" y1="-148" x2="84.25" y2="79" gradientUnits="userSpaceOnUse">
<stop/>
<stop offset="1" stop-opacity="0.17"/>
</linearGradient>
<linearGradient id="paint1_linear_8_1331" x1="84.25" y1="0" x2="84.25" y2="35.3602" gradientUnits="userSpaceOnUse">
<stop stop-color="white"/>
<stop offset="1" stop-color="white"/>
</linearGradient>
<clipPath id="clip0_8_1331">
<rect width="167.5" height="79" fill="white" transform="translate(0.5)"/>
</clipPath>
</defs>
</svg>
