<svg width="168" height="80" viewBox="0 0 168 80" fill="none" xmlns="http://www.w3.org/2000/svg">
<path opacity="0.5" d="M1.55556 47.3881L0 48.3459V80H168V1L166.444 3.90324L166.444 3.9033C164.889 6.80657 161.778 12.613 158.667 14.5859C155.556 16.5589 152.444 14.6983 149.333 14.2242C146.222 13.7501 143.111 14.6625 140 15.4524C136.889 16.2423 133.778 16.9097 130.667 17.1024C127.556 17.2951 124.444 17.0131 121.333 19.0449C118.222 21.0768 115.111 25.4225 112 28.386C108.889 31.3494 105.778 32.9306 102.667 33.3889C99.5556 33.8473 96.4445 33.1828 93.3333 30.8416C90.2222 28.5005 87.1111 24.4826 84 26.3302C80.8889 28.1779 77.7778 35.891 74.6667 35.6227C71.5556 35.3544 68.4445 27.1046 65.3333 22.8806C62.2222 18.6566 59.1111 18.4584 56 19.2633C52.8889 20.0683 49.7778 21.8764 46.6667 22.0729C43.5556 22.2694 40.4444 20.8543 37.3333 22.8148C34.2222 24.7753 31.1111 30.1114 28 35.3573C24.8889 40.6031 21.7778 45.7586 18.6667 46.9505C15.5556 48.1424 12.4444 45.3706 9.33333 44.9426C6.22222 44.5145 3.11111 46.4302 1.55556 47.3881Z" fill="url(#paint0_linear_8_1316)"/>
<path d="M0 48.3459L1.55556 47.3881C3.11111 46.4302 6.22222 44.5145 9.33333 44.9426C12.4444 45.3706 15.5556 48.1424 18.6667 46.9505C21.7778 45.7586 24.8889 40.6031 28 35.3573C31.1111 30.1114 34.2222 24.7753 37.3333 22.8148C40.4444 20.8543 43.5556 22.2694 46.6667 22.0729C49.7778 21.8764 52.8889 20.0683 56 19.2633C59.1111 18.4584 62.2222 18.6566 65.3333 22.8806C68.4444 27.1046 71.5556 35.3544 74.6667 35.6227C77.7778 35.891 80.8889 28.1779 84 26.3302C87.1111 24.4826 90.2222 28.5005 93.3333 30.8416C96.4444 33.1828 99.5556 33.8473 102.667 33.3889C105.778 32.9306 108.889 31.3494 112 28.386C115.111 25.4225 118.222 21.0768 121.333 19.0449C124.444 17.0131 127.556 17.2951 130.667 17.1024C133.778 16.9097 136.889 16.2423 140 15.4524C143.111 14.6625 146.222 13.7501 149.333 14.2242C152.444 14.6983 155.556 16.5589 158.667 14.5859C161.778 12.613 164.889 6.80648 166.444 3.90324L168 1" stroke="url(#paint1_linear_8_1316)" stroke-linecap="round"/>
<defs>
<linearGradient id="paint0_linear_8_1316" x1="84" y1="-147" x2="84" y2="80" gradientUnits="userSpaceOnUse">
<stop/>
<stop offset="1" stop-opacity="0.17"/>
</linearGradient>
<linearGradient id="paint1_linear_8_1316" x1="84" y1="1" x2="84" y2="48.3459" gradientUnits="userSpaceOnUse">
<stop stop-color="white"/>
<stop offset="1" stop-color="white"/>
</linearGradient>
</defs>
</svg>
